<?xml version="1.0" encoding="utf-8"?>
<!-- Generator: Adobe Illustrator 16.0.0, SVG Export Plug-In . SVG Version: 6.00 Build 0)  -->
<!DOCTYPE svg PUBLIC "-//W3C//DTD SVG 1.1//EN" "http://www.w3.org/Graphics/SVG/1.1/DTD/svg11.dtd">
<svg version="1.1" id="Layer_1" xmlns="http://www.w3.org/2000/svg" xmlns:xlink="http://www.w3.org/1999/xlink" x="0px" y="0px"
	 width="79.298px" height="57.544px" viewBox="0 0 79.298 57.544" enable-background="new 0 0 79.298 57.544" xml:space="preserve" class='icon'>
<path fill="#FFFFFF" d="M32.854,12.992H25.26c-2.144,0-4.175,1.711-4.515,3.803l-2.201,13.542c-0.052,0.316-0.056,0.621-0.028,0.916
	h21.083c0.028-0.295,0.021-0.6-0.029-0.916l-2.2-13.542C37.029,14.703,34.998,12.992,32.854,12.992"/>
<path fill="#FFFFFF" d="M29.058,0c-3.025,0-5.479,2.656-5.479,5.933c0,3.275,2.454,5.932,5.479,5.932s5.479-2.656,5.479-5.932
	C34.536,2.656,32.083,0,29.058,0"/>
<path fill="#FFFFFF" d="M17.691,5.002C17.631,5.02,17.6,5.077,17.62,5.155l0.123,0.456c0.027,0.102,0.136,0.2,0.242,0.221
	l3.55,0.637c0.104,0.019,0.192,0.038,0.195,0.043c0,0.006-0.065,0.067-0.147,0.137l-2.756,2.325c-0.083,0.069-0.127,0.211-0.1,0.314
	l0.123,0.454c0.021,0.078,0.076,0.112,0.137,0.096c0.021-0.006,0.042-0.017,0.063-0.035l3.653-3.086
	c0.082-0.068,0.127-0.21,0.099-0.313l-0.089-0.335c-0.027-0.104-0.138-0.203-0.243-0.223l-4.707-0.846
	C17.737,4.996,17.712,4.997,17.691,5.002"/>
<rect x="13.704" y="30.496" fill="#FFFFFF" width="50.993" height="1.073"/>
<path fill="#FFFFFF" d="M59.393,20.335H42.534c-0.428,0-0.778,0.349-0.778,0.773v9.37c0,0.427,0.351,0.774,0.778,0.774h16.858
	c0.429,0,0.779-0.348,0.779-0.774v-9.37C60.172,20.684,59.821,20.335,59.393,20.335z M52.132,26.703h-2.338v-1.418h2.338V26.703z"/>
<path fill="#8159AC" d="M12.263,35.904c-2.717,0-4.918,2.396-4.918,5.354c0,2.956,2.201,5.354,4.918,5.354
	c2.716,0,4.918-2.397,4.918-5.354C17.181,38.301,14.979,35.904,12.263,35.904"/>
<path fill="#8159AC" d="M2.338,38.908c-0.06,0-0.101,0.047-0.101,0.121v0.443c0,0.099,0.073,0.216,0.166,0.259l3.063,1.44
	c0.092,0.042,0.166,0.082,0.166,0.087s-0.074,0.044-0.166,0.087l-3.063,1.438c-0.093,0.043-0.166,0.16-0.166,0.262v0.44
	c0,0.075,0.041,0.12,0.101,0.12c0.021,0,0.042-0.005,0.065-0.015l4.062-1.911c0.091-0.042,0.166-0.16,0.166-0.261v-0.325
	c0-0.101-0.075-0.217-0.166-0.26l-4.062-1.91C2.38,38.914,2.358,38.908,2.338,38.908"/>
<path fill="#8159AC" d="M22.188,38.909c-0.021,0-0.042,0.005-0.065,0.017l-4.063,1.927c-0.091,0.044-0.166,0.161-0.166,0.262v0.288
	c0,0.101,0.075,0.218,0.166,0.262l4.063,1.927c0.023,0.011,0.045,0.016,0.064,0.016c0.059,0,0.102-0.045,0.102-0.119v-0.442
	c0-0.1-0.076-0.218-0.166-0.26l-3.063-1.439c-0.093-0.043-0.168-0.083-0.168-0.087c0-0.006,0.075-0.044,0.168-0.087l3.063-1.432
	c0.09-0.042,0.166-0.16,0.166-0.261v-0.45C22.288,38.954,22.247,38.909,22.188,38.909"/>
<path fill="#8159AC" d="M40.114,35.904c-2.716,0-4.918,2.396-4.918,5.354c0,2.956,2.202,5.354,4.918,5.354
	c2.717,0,4.918-2.397,4.918-5.354C45.032,38.301,42.831,35.904,40.114,35.904"/>
<path fill="#8159AC" d="M30.189,38.908c-0.06,0-0.101,0.047-0.101,0.121v0.443c0,0.099,0.074,0.216,0.166,0.259l3.063,1.44
	c0.092,0.042,0.166,0.082,0.166,0.087s-0.074,0.044-0.166,0.087l-3.063,1.438c-0.092,0.043-0.166,0.16-0.166,0.262v0.44
	c0,0.075,0.041,0.12,0.101,0.12c0.021,0,0.042-0.005,0.065-0.015l4.062-1.911c0.091-0.042,0.166-0.16,0.166-0.261v-0.325
	c0-0.101-0.075-0.217-0.166-0.26l-4.062-1.91C30.231,38.914,30.21,38.908,30.189,38.908"/>
<path fill="#8159AC" d="M50.04,38.909c-0.021,0-0.043,0.005-0.065,0.017l-4.064,1.927c-0.09,0.044-0.166,0.161-0.166,0.262v0.288
	c0,0.101,0.076,0.218,0.166,0.262l4.064,1.927c0.022,0.011,0.044,0.016,0.063,0.016c0.059,0,0.103-0.045,0.103-0.119v-0.442
	c0-0.1-0.076-0.218-0.166-0.26l-3.064-1.439c-0.092-0.043-0.168-0.083-0.168-0.087c0-0.006,0.076-0.044,0.168-0.087l3.064-1.432
	c0.09-0.042,0.166-0.16,0.166-0.261v-0.45C50.141,38.954,50.099,38.909,50.04,38.909"/>
<path fill="#8159AC" d="M66.966,35.904c-2.715,0-4.918,2.396-4.918,5.354c0,2.956,2.203,5.354,4.918,5.354
	c2.717,0,4.918-2.397,4.918-5.354C71.884,38.301,69.683,35.904,66.966,35.904"/>
<path fill="#8159AC" d="M57.042,38.908c-0.06,0-0.102,0.047-0.102,0.121v0.443c0,0.099,0.074,0.216,0.166,0.259l3.063,1.44
	c0.092,0.042,0.166,0.082,0.166,0.087s-0.074,0.044-0.166,0.087l-3.063,1.438c-0.092,0.043-0.166,0.16-0.166,0.262v0.44
	c0,0.075,0.042,0.12,0.102,0.12c0.02,0,0.041-0.005,0.064-0.015l4.063-1.911c0.091-0.042,0.166-0.16,0.166-0.261v-0.325
	c0-0.101-0.075-0.217-0.166-0.26l-4.063-1.91C57.083,38.914,57.062,38.908,57.042,38.908"/>
<path fill="#8159AC" d="M76.892,38.909c-0.021,0-0.043,0.005-0.065,0.017l-4.063,1.927c-0.09,0.044-0.166,0.161-0.166,0.262v0.288
	c0,0.101,0.076,0.218,0.166,0.262l4.063,1.927c0.022,0.011,0.044,0.016,0.063,0.016c0.06,0,0.103-0.045,0.103-0.119v-0.442
	c0-0.1-0.075-0.218-0.166-0.26l-3.063-1.439c-0.092-0.043-0.168-0.083-0.168-0.087c0-0.006,0.076-0.044,0.168-0.087l3.063-1.432
	c0.091-0.042,0.166-0.16,0.166-0.261v-0.45C76.992,38.954,76.95,38.909,76.892,38.909"/>
<path fill="#8159AC" d="M75.38,56.942l-0.951-5.882c-0.306-1.888-2.129-3.432-4.054-3.432h-6.817c-1.924,0-3.748,1.544-4.054,3.432
	l-0.95,5.882H75.38z"/>
<path fill="#8159AC" d="M48.527,56.942l-0.951-5.882c-0.306-1.888-2.129-3.432-4.054-3.432h-6.816c-1.924,0-3.748,1.544-4.055,3.432
	l-0.95,5.882H48.527z"/>
<path fill="#8159AC" d="M20.675,56.942l-0.951-5.882c-0.305-1.888-2.129-3.432-4.053-3.432H8.854c-1.924,0-3.748,1.544-4.055,3.432
	l-0.95,5.882H20.675z"/>
<rect y="56.34" fill="#8159AC" width="79.298" height="1.204"/>
</svg>
