<?xml version="1.0" encoding="utf-8"?>
<!-- Generator: Adobe Illustrator 16.0.0, SVG Export Plug-In . SVG Version: 6.00 Build 0)  -->
<!DOCTYPE svg PUBLIC "-//W3C//DTD SVG 1.1//EN" "http://www.w3.org/Graphics/SVG/1.1/DTD/svg11.dtd">
<svg version="1.1" id="Layer_1" xmlns="http://www.w3.org/2000/svg" xmlns:xlink="http://www.w3.org/1999/xlink" x="0px" y="0px"
	 width="352.869px" height="300.664px" viewBox="0 0 352.869 300.664" enable-background="new 0 0 352.869 300.664"
	 xml:space="preserve" class='icon'>
<rect x="15.997" y="4.02" opacity="0.7" fill="#EDEDF4" enable-background="new    " width="64.063" height="44.063"/>
<line fill="none" stroke="#D6D6D8" stroke-width="4" stroke-miterlimit="10" x1="78.097" y1="47.557" x2="78.097" y2="73.313"/>
<path fill="#EDEDF4" d="M233.035,258.052v13.513h44.235v-7.756c0-0.841,0.688-1.525,1.525-1.525h21.459
	c0.842,0,1.526,0.688,1.526,1.525v7.756h44.234v-13.513H233.035z"/>
<rect x="233.034" y="241.309" fill="#EDEDF4" width="112.983" height="13.514"/>
<rect x="301.783" y="274.794" fill="#EDEDF4" width="44.235" height="13.513"/>
<path fill="#EDEDF4" d="M226.813,229.708c-1.135,1.235-0.689,2.25,0.99,2.25h5.229v6.119H346.02v-6.119h5.231
	c1.679,0,2.124-1.015,0.991-2.25l-4.709-5.144H231.522L226.813,229.708z"/>
<path fill="#EDEDF4" d="M277.524,174.337l-12.375,13.513h55.282v-13.603c0-0.838-0.688-1.524-1.525-1.524h-6.498
	c-0.84,0-1.528,0.688-1.528,1.524v10.301l-9.352-10.211H277.524z"/>
<rect x="233.034" y="274.794" fill="#EDEDF4" width="44.236" height="13.513"/>
<path fill="#EDEDF4" d="M233.035,291.539v6.799c0,0.842,0.687,1.527,1.524,1.527h41.186c0.839,0,1.525-0.688,1.525-1.527v-6.799
	H233.035z"/>
<path fill="#EDEDF4" d="M301.783,291.539v6.799c0,0.842,0.687,1.527,1.526,1.527h41.184c0.84,0,1.524-0.688,1.524-1.527v-6.799
	H301.783z"/>
<polygon fill="#EDEDF4" points="320.434,191.082 262.19,191.082 249.815,204.593 329.239,204.593 320.434,194.979 "/>
<polygon fill="#EDEDF4" points="246.856,207.824 234.479,221.335 344.573,221.335 332.198,207.824 "/>
<g>
	<path fill="#EDEDF4" d="M298.569,171.107l-6.981-7.625c-1.134-1.236-2.987-1.236-4.124,0l-6.979,7.625H298.569z"/>
</g>
<rect x="220.625" y="187.369" fill="#FFFFFF" width="41.703" height="113.295"/>
<path fill="#C6C6E0" d="M14.997,204.8v33.894h93.295v-16.98c0-1.838,1.503-3.342,3.342-3.342h54.125
	c1.839,0,3.343,1.504,3.343,3.342v16.98h93.295V204.8H14.997z"/>
<rect x="14.997" y="168.143" fill="#C6C6E0" width="247.4" height="33.891"/>
<rect x="169.102" y="241.462" fill="#C6C6E0" width="93.295" height="33.894"/>
<path fill="#C6C6E0" d="M1.375,147.042c-2.484,2.711-1.508,4.929,2.169,4.929h11.453v13.399h247.4v-13.399h11.455
	c3.676,0,4.649-2.218,2.168-4.929l-15.229-15.249l-244.778,0.359L1.375,147.042z"/>
<path fill="#C6C6E0" d="M117.661,21.308L85.317,55.387h121.054V25.605c0-1.838-1.504-3.343-3.345-3.343h-14.229
	c-1.839,0-3.343,1.504-3.343,3.343v22.553L159.99,21.666L117.661,21.308z"/>
<rect x="14.997" y="241.464" fill="#C6C6E0" width="93.295" height="33.892"/>
<path fill="#C6C6E0" d="M14.997,278.125v19.195c0,1.84,1.504,3.344,3.343,3.344h86.61c1.838,0,3.343-1.504,3.343-3.344v-19.195
	H14.997z"/>
<path fill="#C6C6E0" d="M169.103,278.125v19.195c0,1.84,1.504,3.344,3.342,3.344h86.611c1.838,0,3.342-1.504,3.342-4.42v-18.119
	H169.103z"/>
<polygon fill="#C6C6E0" points="206.371,58.255 84.299,58.255 51.741,92.048 225.653,92.048 206.371,70.994 "/>
<polygon fill="#C6C6E0" points="51.741,94.486 18.165,128.71 259.229,128.71 228.146,94.486 "/>
<path fill="#C6C6E0" d="M158.499,18.726L143.211,2.033c-2.484-2.711-6.546-2.711-9.03,0l-15.287,16.693H158.499z"/>
<path fill="#FFFFFF" d="M333.293,251.048c0,0.521-0.427,0.949-0.949,0.949H316.6c-0.521,0-0.947-0.429-0.947-0.949v-15.743
	c0-0.521,0.427-0.951,0.947-0.951h15.744c0.522,0,0.949,0.43,0.949,0.951V251.048z"/>
<path fill="#FFFFFF" d="M235.034,194.998c0,1.102-0.899,2-2,2h-33.143c-1.101,0-1.998-0.898-1.998-2v-33.141
	c0-1.103,0.897-2,1.998-2h33.143c1.101,0,2,0.897,2,2V194.998z"/>
<path fill="#FFFFFF" d="M79.791,194.998c0,1.102-0.9,2-2,2H44.649c-1.099,0-1.999-0.898-1.999-2v-33.141c0-1.103,0.899-2,1.999-2
	h33.142c1.1,0,2,0.897,2,2V194.998z"/>
<rect x="43.747" y="4.02" fill="#FF6868" width="8.563" height="44.063"/>
<rect x="15.997" y="21.74" fill="#FF6868" width="64.063" height="8.78"/>
<g>
	<g>
		<rect x="64.56" y="34.832" fill="#FF6868" width="2.938" height="8.75"/>
	</g>
	<g>
		<rect x="61.653" y="37.738" fill="#FF6868" width="8.75" height="2.938"/>
	</g>
</g>
<g>
	<g>
		<rect x="64.56" y="8.457" fill="#FF6868" width="2.938" height="8.75"/>
	</g>
	<g>
		<rect x="61.653" y="11.363" fill="#FF6868" width="8.75" height="2.938"/>
	</g>
</g>
<g>
	<g>
		<rect x="28.685" y="34.832" fill="#FF6868" width="2.938" height="8.75"/>
	</g>
	<g>
		<rect x="25.778" y="37.738" fill="#FF6868" width="8.75" height="2.938"/>
	</g>
</g>
<g>
	<g>
		<rect x="28.685" y="8.457" fill="#FF6868" width="2.938" height="8.75"/>
	</g>
	<g>
		<rect x="25.778" y="11.363" fill="#FF6868" width="8.75" height="2.938"/>
	</g>
</g>
</svg>
