<svg xmlns="http://www.w3.org/2000/svg" xmlns:xlink="http://www.w3.org/1999/xlink" version="1.1" x="0px" y="0px" viewBox="0 0 100 125" style="enable-background:new 0 0 100 100;" xml:space="preserve"><path d="M37,77.8c-3.1-4.7-10.2-15.2-10.2-15.2c-2.4-2.4-2.3-6.5,0.4-8.7c2.4-2,5.9-1.6,8.1,0.6l3,3V24.6c0-2.7,2.3-4.9,5.1-4.6  c2.4,0.2,4.2,2.4,4.2,4.8l0,16.8c0-2.7,2.3-4.9,5.1-4.6c2.4,0.2,4.2,2.4,4.2,4.8v0.8c0.5-2.2,2.7-3.9,5.1-3.5c2.3,0.3,4,2.4,4,4.8  v1.2c0.5-2.2,2.7-3.9,5.1-3.5c2.3,0.3,4,2.4,4,4.8c0,0,0,19.4,0,28.7c0,2.7-2.2,4.9-4.9,4.9h-29C39.4,80,37.9,79.2,37,77.8z"/></svg>