<svg xmlns="http://www.w3.org/2000/svg" xmlns:xlink="http://www.w3.org/1999/xlink" version="1.1" x="0px" y="0px" viewBox="0 0 100 100" style="enable-background:new 0 0 100 100;" xml:space="preserve"><g><g><path d="M44.3,28V11.5c0-0.8-0.7-1.5-1.5-1.5s-1.5,0.7-1.5,1.5V28c0,0.8,0.7,1.5,1.5,1.5S44.3,28.8,44.3,28z"/><path d="M30.3,41.7c0-0.8-0.7-1.5-1.5-1.5H12.3c-0.8,0-1.5,0.7-1.5,1.5s0.7,1.5,1.5,1.5h16.5C29.6,43.2,30.3,42.6,30.3,41.7z"/><path d="M25.9,22.8c-0.6-0.6-1.5-0.6-2.1,0c-0.6,0.6-0.6,1.5,0,2.1l5.3,5.3c0.3,0.3,0.7,0.4,1.1,0.4s0.8-0.1,1.1-0.4    c0.6-0.6,0.6-1.5,0-2.1L25.9,22.8z"/><path d="M56.1,30.3l5.3-5.3c0.6-0.6,0.6-1.5,0-2.1c-0.6-0.6-1.5-0.6-2.1,0L54,28.2c-0.6,0.6-0.6,1.5,0,2.1    c0.3,0.3,0.7,0.4,1.1,0.4S55.8,30.6,56.1,30.3z"/><path d="M28.9,53.2l-5.3,5.3c-0.6,0.6-0.6,1.5,0,2.1c0.3,0.3,0.7,0.4,1.1,0.4s0.8-0.1,1.1-0.4l5.3-5.3c0.6-0.6,0.6-1.5,0-2.1    S29.5,52.6,28.9,53.2z"/><path d="M85.7,53L43.9,41.3c-0.5-0.1-1.1,0-1.5,0.4c-0.4,0.4-0.5,0.9-0.4,1.5l11.5,42.1c0.2,0.6,0.7,1.1,1.4,1.1c0,0,0.1,0,0.1,0    c0.6,0,1.2-0.4,1.4-1l8.3-21.5l21.2-8c0.6-0.2,1-0.8,1-1.5C86.8,53.8,86.3,53.2,85.7,53z"/></g></g></svg>