<?xml version="1.0" encoding="utf-8"?>
<!-- Generator: Adobe Illustrator 16.0.0, SVG Export Plug-In . SVG Version: 6.00 Build 0)  -->
<!DOCTYPE svg PUBLIC "-//W3C//DTD SVG 1.1//EN" "http://www.w3.org/Graphics/SVG/1.1/DTD/svg11.dtd">
<svg version="1.1" id="Layer_1" xmlns="http://www.w3.org/2000/svg" xmlns:xlink="http://www.w3.org/1999/xlink" x="0px" y="0px"
	 width="120.264px" height="103.804px" viewBox="0 0 120.264 103.804" enable-background="new 0 0 120.264 103.804"
	 xml:space="preserve">
<g>
	<path fill="#FFFFFF" d="M63.25,41.738c0.061-0.012,0.121-0.03,0.18-0.052c0.639-0.24,0.96-0.948,0.722-1.582l-1.949-5.132
		c-0.137-0.361-0.439-0.637-0.816-0.744c-3.932-1.104-6.905-4.247-7.757-8.203c-1.271-5.896,2.539-11.734,8.49-13.017
		c5.952-1.281,11.827,2.471,13.097,8.366c0.853,3.956-0.563,8.045-3.69,10.67c-0.301,0.252-0.461,0.627-0.438,1.014l0.337,5.479
		c0.041,0.674,0.628,1.186,1.309,1.143c0.679-0.043,1.2-0.626,1.158-1.303l-0.301-4.882c3.496-3.22,5.042-8.004,4.043-12.642
		c-1.555-7.216-8.746-11.81-16.03-10.239c-7.284,1.567-11.947,8.715-10.395,15.931c1.001,4.637,4.38,8.364,8.894,9.856l1.734,4.573
		C62.057,41.55,62.663,41.865,63.25,41.738"/>
	<path fill="#FFFFFF" d="M62.373,42.924l11.834-2.549c0.667-0.143,1.091-0.797,0.949-1.458c-0.143-0.661-0.8-1.081-1.467-0.937
		l-11.834,2.55c-0.667,0.144-1.091,0.796-0.949,1.457C61.05,42.648,61.706,43.067,62.373,42.924"/>
	<path fill="#FFFFFF" d="M64.764,46.489l8.731-1.88c0.666-0.144,1.092-0.796,0.951-1.458c-0.143-0.661-0.802-1.081-1.469-0.935
		l-8.728,1.88c-0.668,0.144-1.093,0.794-0.951,1.455C63.44,46.214,64.097,46.633,64.764,46.489"/>
	<path fill="#FFFFFF" d="M67.543,49.601l4.7-1.014c0.669-0.144,1.094-0.795,0.95-1.456c-0.143-0.662-0.798-1.081-1.466-0.937
		l-4.701,1.012c-0.669,0.145-1.091,0.796-0.949,1.457C66.219,49.326,66.876,49.744,67.543,49.601"/>
	<path fill="#FFFFFF" d="M68.031,40.452c0.446-0.095,0.729-0.531,0.633-0.971l-2.25-10.443c-0.093-0.441-0.531-0.721-0.976-0.625
		c-0.445,0.097-0.729,0.531-0.636,0.972l2.251,10.442C67.148,40.269,67.587,40.547,68.031,40.452"/>
	<path fill="#FFFFFF" d="M65.76,29.633c0.148-0.032,0.29-0.104,0.405-0.218l4.409-4.326c0.323-0.318,0.326-0.835,0.006-1.155
		c-0.319-0.319-0.84-0.319-1.163-0.002l-4.409,4.325c-0.321,0.318-0.326,0.835-0.007,1.155C65.207,29.616,65.493,29.69,65.76,29.633
		"/>
	<path fill="#FFFFFF" d="M65.758,29.632c0.268-0.056,0.498-0.241,0.603-0.514c0.158-0.422-0.06-0.892-0.484-1.049l-5.797-2.127
		c-0.426-0.156-0.899,0.061-1.06,0.483c-0.162,0.423,0.057,0.892,0.482,1.048l5.797,2.127
		C65.451,29.657,65.609,29.665,65.758,29.632"/>
	<path fill="#FFFFFF" d="M61.04,7.999c0.443-0.095,0.729-0.532,0.633-0.971l-1.375-6.385c-0.095-0.439-0.531-0.719-0.978-0.624
		c-0.443,0.095-0.729,0.532-0.635,0.972l1.377,6.384C60.157,7.816,60.595,8.094,61.04,7.999"/>
	<path fill="#FFFFFF" d="M72.812,8.969c0.246-0.053,0.464-0.214,0.578-0.458l2.767-5.94c0.19-0.41,0.011-0.895-0.401-1.082
		c-0.414-0.188-0.903-0.008-1.093,0.401l-2.769,5.94c-0.191,0.41-0.011,0.895,0.401,1.083C72.463,8.99,72.645,9.006,72.812,8.969"/>
	<path fill="#FFFFFF" d="M79.841,17.846c0.075-0.018,0.149-0.043,0.223-0.083l5.783-3.154c0.4-0.218,0.547-0.715,0.327-1.11
		c-0.216-0.394-0.719-0.538-1.118-0.32l-5.783,3.154c-0.397,0.218-0.545,0.715-0.327,1.111
		C79.124,17.767,79.493,17.92,79.841,17.846"/>
	<path fill="#FFFFFF" d="M47.749,24.759c0.348-0.076,0.618-0.368,0.648-0.736c0.038-0.451-0.3-0.843-0.756-0.877l-6.567-0.493
		c-0.46-0.034-0.851,0.304-0.886,0.752c-0.038,0.451,0.3,0.843,0.754,0.876l6.569,0.492C47.594,24.78,47.673,24.775,47.749,24.759"
		/>
	<path fill="#FFFFFF" d="M50.711,13.73c0.17-0.036,0.326-0.125,0.449-0.264c0.298-0.341,0.263-0.856-0.081-1.151l-4.967-4.274
		c-0.343-0.294-0.863-0.257-1.164,0.083c-0.297,0.342-0.264,0.856,0.081,1.152l4.967,4.274
		C50.199,13.726,50.467,13.783,50.711,13.73"/>
</g>
<g>
	<g>
		<path fill="#8159AC" d="M56.682,65.51c-6.491,11.11-2.566,25.341,8.762,31.788c11.332,6.443,25.778,2.659,32.268-8.45"/>
	</g>
	<g>
		<path fill="#FFFFFF" d="M65.35,98.045c-5.619-3.191-9.626-8.345-11.283-14.509c-1.632-6.072-0.78-12.41,2.396-17.845
			c4.247-7.269,12.223-11.786,20.815-11.786c2.079,0,4.157,0.266,6.177,0.791c0.149,0.038,0.315-0.028,0.394-0.162l16.099-26.876
			c0.291-0.484,0.915-0.649,1.405-0.369c2.985,1.699,5.975,3.399,8.964,5.097c0.243,0.138,0.421,0.368,0.493,0.638
			c0.07,0.271,0.028,0.559-0.114,0.799l-16.09,26.865c-0.083,0.137-0.061,0.313,0.053,0.43c7.441,7.601,8.931,19.257,3.62,28.343
			c-4.245,7.273-12.221,11.791-20.812,11.791l0,0C73.23,101.253,69.04,100.144,65.35,98.045z M101.208,29.598L85.631,55.602
			c-0.541,0.908-1.679,1.369-2.7,1.105c-1.847-0.481-3.75-0.725-5.652-0.725c-7.855,0-15.146,4.123-19.023,10.757
			c-2.892,4.953-3.668,10.727-2.183,16.257c1.513,5.622,5.172,10.325,10.304,13.239c3.378,1.923,7.214,2.938,11.091,2.938
			c7.854,0,15.142-4.122,19.018-10.762c4.839-8.28,3.477-18.907-3.311-25.841c-0.777-0.792-0.921-2.007-0.351-2.953l15.543-25.951
			C105.979,32.312,103.593,30.955,101.208,29.598z"/>
	</g>
	<g>
		<path fill="#8159AC" d="M118.312,13.612c-1.261-0.2-2.44,0.642-2.636,1.88c-0.195,1.239,0.665,2.402,1.927,2.602
			c1.259,0.2,2.438-0.643,2.634-1.878C120.43,14.976,119.569,13.812,118.312,13.612"/>
	</g>
	<g>
		<path fill="#8159AC" d="M113.624,6.112c-1.238-0.196-2.401,0.632-2.594,1.852c-0.194,1.218,0.656,2.366,1.896,2.563
			c1.239,0.197,2.402-0.633,2.595-1.852C115.714,7.456,114.865,6.309,113.624,6.112"/>
	</g>
	<g>
		<path fill="#8159AC" d="M104.308,33.217c-1.243-0.196-2.404,0.631-2.598,1.854c-0.193,1.22,0.656,2.368,1.898,2.564
			c1.239,0.196,2.401-0.633,2.597-1.854C106.396,34.562,105.551,33.414,104.308,33.217"/>
	</g>
	<g>
		<path fill="#8159AC" d="M86.071,70.165c-1.241-0.197-2.404,0.632-2.597,1.854c-0.194,1.22,0.655,2.368,1.897,2.564
			c1.241,0.196,2.405-0.632,2.597-1.854C88.163,71.509,87.312,70.361,86.071,70.165"/>
	</g>
	<g>
		<path fill="#8159AC" d="M85.306,60.462c-1.411-0.223-2.731,0.719-2.95,2.102c-0.219,1.388,0.746,2.69,2.154,2.913
			c1.41,0.223,2.73-0.716,2.952-2.103C87.679,61.989,86.713,60.685,85.306,60.462"/>
	</g>
	<g>
		<path fill="#8159AC" d="M111.384,20.491c-2.031-0.323-3.936,1.034-4.25,3.031c-0.318,1.999,1.073,3.877,3.104,4.199
			c2.03,0.323,3.934-1.036,4.249-3.032C114.806,22.692,113.414,20.812,111.384,20.491"/>
	</g>
</g>
<g>
	<g>
		<path fill="#8159AC" d="M5.49,54.168c0.859-0.309,1.827,0.197,2.159,1.129c0.337,0.929-0.088,1.93-0.95,2.24
			c-0.857,0.309-1.824-0.194-2.157-1.123C4.207,55.481,4.633,54.475,5.49,54.168 M9.797,52.622c0.855-0.306,1.823,0.195,2.159,1.128
			c0.335,0.929-0.092,1.932-0.948,2.245c-0.859,0.306-1.826-0.198-2.163-1.129C8.514,53.938,8.937,52.932,9.797,52.622
			 M14.104,51.075c0.857-0.308,1.825,0.198,2.156,1.128c0.335,0.931-0.091,1.937-0.949,2.244c-0.859,0.308-1.828-0.195-2.159-1.125
			C12.815,52.39,13.243,51.385,14.104,51.075 M61.859,34.079c-0.465-1.291-1.805-1.989-2.989-1.563L1.475,53.123
			c-1.19,0.428-1.779,1.817-1.317,3.108l16.475,45.886c0.462,1.289,1.8,1.987,2.992,1.562l57.393-20.604
			c1.19-0.43,1.781-1.822,1.316-3.109L61.859,34.079z"/>
	</g>
	<g>
		<polygon fill="#FFFFFF" points="75.186,80.219 19.226,100.308 5.261,61.421 61.222,41.33 		"/>
		<path fill="#FFFFFF" d="M75.778,80.5l-56.837,20.405L4.666,61.14l56.837-20.408L75.778,80.5z M19.503,99.713L74.59,79.937
			L60.94,41.925L5.857,61.703L19.503,99.713z"/>
	</g>
	<g>
		<path fill="#45D5F6" d="M30.089,64.518c-0.059,0.02-0.12,0.063-0.177,0.123L19.709,75.176c-0.228,0.239-0.319,0.688-0.208,1.004
			l0.323,0.913c0.114,0.317,0.479,0.604,0.802,0.642L35.2,79.377c0.082,0.008,0.153-0.002,0.218-0.021
			c0.181-0.066,0.257-0.257,0.173-0.492l-0.503-1.394c-0.114-0.317-0.479-0.607-0.799-0.644l-10.972-1.189
			c-0.331-0.038-0.608-0.075-0.611-0.092c-0.004-0.018,0.179-0.219,0.414-0.459l7.714-7.874c0.229-0.232,0.326-0.686,0.211-1.006
			l-0.511-1.419C30.448,64.551,30.271,64.45,30.089,64.518"/>
	</g>
	<g>
		<path fill="#45D5F6" d="M44.03,59.513c0.064-0.025,0.137-0.03,0.217-0.019l14.571,1.642c0.325,0.038,0.689,0.325,0.803,0.64
			l0.327,0.913c0.114,0.317,0.019,0.77-0.208,1.006L49.539,74.23c-0.058,0.059-0.119,0.097-0.176,0.119
			c-0.185,0.065-0.365-0.032-0.449-0.27l-0.503-1.391c-0.113-0.319-0.016-0.773,0.213-1.007l7.709-7.897
			c0.229-0.238,0.419-0.444,0.409-0.46c-0.004-0.015-0.277-0.054-0.606-0.091l-10.964-1.166c-0.324-0.036-0.688-0.324-0.804-0.641
			l-0.509-1.424C43.773,59.766,43.852,59.577,44.03,59.513"/>
	</g>
	<g>
		
			<rect x="38.686" y="54.635" transform="matrix(0.9983 -0.0579 0.0579 0.9983 -3.9949 2.4335)" fill="#33DDFF" width="2.562" height="30.946"/>
	</g>
</g>
</svg>
