<?xml version="1.0" encoding="utf-8"?>
<!-- Generator: Adobe Illustrator 16.0.0, SVG Export Plug-In . SVG Version: 6.00 Build 0)  -->
<!DOCTYPE svg PUBLIC "-//W3C//DTD SVG 1.1//EN" "http://www.w3.org/Graphics/SVG/1.1/DTD/svg11.dtd">
<svg version="1.1" id="Layer_1" xmlns="http://www.w3.org/2000/svg" xmlns:xlink="http://www.w3.org/1999/xlink" x="0px" y="0px"
	 width="214.265px" height="83.125px" viewBox="0 0 214.265 83.125" enable-background="new 0 0 214.265 83.125"
	 xml:space="preserve" class='icon'>
<g>
	<path fill="#74479E" d="M123.408,40.391c0,1.891-0.469,3.266-1.401,4.119c-0.934,0.857-2.379,1.283-4.339,1.283h-0.439
		c-1.956,0-3.402-0.426-4.337-1.283c-0.936-0.854-1.4-2.229-1.4-4.119v-6.076c0-1.891,0.465-3.264,1.4-4.119
		c0.935-0.855,2.381-1.283,4.337-1.283h0.439c1.96,0,3.405,0.428,4.339,1.283c0.933,0.855,1.401,2.229,1.401,4.119V40.391z
		 M120.538,41.066v-7.428c0-1.463-0.845-2.195-2.533-2.195h-1.114c-1.688,0-2.531,0.732-2.531,2.195v7.428
		c0,1.465,0.844,2.195,2.531,2.195h1.114C119.693,43.262,120.538,42.531,120.538,41.066z"/>
	<path fill="#74479E" d="M155.045,40.391c0,1.891-0.469,3.266-1.402,4.119c-0.935,0.857-2.381,1.283-4.339,1.283h-0.439
		c-1.958,0-3.404-0.426-4.337-1.283c-0.935-0.854-1.401-2.229-1.401-4.119v-6.076c0-1.891,0.467-3.264,1.401-4.119
		c0.933-0.855,2.379-1.283,4.337-1.283h0.439c1.958,0,3.404,0.428,4.339,1.283c0.934,0.855,1.402,2.229,1.402,4.119V40.391z
		 M152.175,41.066v-7.428c0-1.463-0.845-2.195-2.533-2.195h-1.115c-1.687,0-2.53,0.732-2.53,2.195v7.428
		c0,1.465,0.844,2.195,2.53,2.195h1.115C151.33,43.262,152.175,42.531,152.175,41.066z"/>
	<path fill="#74479E" d="M132.435,28.834c-3.123,0-5.14,1.887-5.14,4.805v6.189c0,3.24,2.386,4.805,5.775,4.805c0,0,0.696,0,0.987,0
		c0.842,0,1.767-0.174,2.484-0.725v3.404c0,0.496-0.201,0.9-0.607,1.217c-0.405,0.314-1.014,0.473-1.822,0.473h-5.527v2.531h5.189
		c3.759,0,5.638-1.52,5.638-4.559v-6.926v-4.891v-6.324H132.435z M134.348,42.023h-1.595c-1.687,0-2.531-0.732-2.531-2.195v-6.189
		c0-1.463,0.845-2.195,2.531-2.195h3.789v8.484c-0.045,0.496-0.248,0.969-0.607,1.42C135.574,41.797,135.045,42.023,134.348,42.023z
		"/>
	<path fill="#74479E" d="M100.856,28.834c-3.124,0-5.141,1.887-5.141,4.805v6.189c0,3.24,2.386,4.805,5.775,4.805
		c0,0,0.696,0,0.988,0c0.84,0,1.766-0.174,2.484-0.725v3.404c0,0.496-0.202,0.9-0.609,1.217c-0.404,0.314-1.013,0.473-1.821,0.473
		h-5.526v2.531h5.188c3.76,0,5.639-1.52,5.639-4.559v-6.926v-4.891v-6.324H100.856z M102.769,42.023h-1.594
		c-1.687,0-2.531-0.732-2.531-2.195v-6.189c0-1.463,0.845-2.195,2.531-2.195h3.789v8.484c-0.047,0.496-0.248,0.969-0.609,1.42
		C103.995,41.797,103.467,42.023,102.769,42.023z"/>
</g>
<g>
	<rect x="7.956" fill="#3EE3FF" width="67.872" height="76.293"/>
</g>
<g>
	<g>
		<path fill="#1F4FAE" d="M52.173,20.643c0,7.91-4.81,12.102-10.674,12.102c-6.068,0-10.331-4.703-10.331-11.656
			c0-7.297,4.536-12.068,10.672-12.068C48.113,9.02,52.173,13.826,52.173,20.643z M34.341,21.02c0,4.908,2.658,9.307,7.33,9.307
			c4.702,0,7.361-4.328,7.361-9.545c0-4.568-2.386-9.344-7.326-9.344C36.793,11.438,34.341,15.973,34.341,21.02z"/>
		<g>
			<g>
				<path fill="#1F4FAE" d="M22.672,65.512c-0.241,0-0.365-0.184-0.274-0.408l11.514-28.449c0.091-0.223,0.363-0.406,0.604-0.406
					h2.606c0.241,0,0.365,0.184,0.274,0.406L25.841,65.104c-0.091,0.225-0.363,0.408-0.604,0.408H22.672z"/>
			</g>
			<g>
				<path fill="#1F4FAE" d="M58.506,65.512c-0.241,0-0.512-0.184-0.601-0.41L46.677,36.656c-0.089-0.225,0.037-0.408,0.278-0.408
					h2.608c0.241,0,0.512,0.184,0.601,0.408L61.39,65.102c0.089,0.227-0.037,0.41-0.278,0.41H58.506z"/>
			</g>
		</g>
	</g>
</g>
<g>
	<path fill="#32DEFF" d="M168.348,45.793h-3.681c-1.98,0-3.433-0.422-4.355-1.266c-0.924-0.844-1.384-2.223-1.384-4.137v-6.076
		c0-1.891,0.467-3.264,1.401-4.119c0.934-0.855,2.38-1.283,4.338-1.283h3.681v2.531h-4.02c-1.687,0-2.53,0.732-2.53,2.195v7.428
		c0,1.465,0.844,2.195,2.53,2.195h4.02V45.793z"/>
	<path fill="#32DEFF" d="M183.135,40.391c0,1.891-0.468,3.266-1.401,4.119c-0.935,0.857-2.381,1.283-4.339,1.283h-0.439
		c-1.957,0-3.403-0.426-4.338-1.283c-0.935-0.854-1.401-2.229-1.401-4.119v-6.076c0-1.891,0.467-3.264,1.401-4.119
		s2.381-1.283,4.338-1.283h0.439c1.958,0,3.404,0.428,4.339,1.283c0.934,0.855,1.401,2.229,1.401,4.119V40.391z M180.265,41.066
		v-7.428c0-1.463-0.844-2.195-2.532-2.195h-1.115c-1.687,0-2.531,0.732-2.531,2.195v7.428c0,1.465,0.845,2.195,2.531,2.195h1.115
		C179.421,43.262,180.265,42.531,180.265,41.066z"/>
	<path fill="#32DEFF" d="M198.868,45.793h-2.701v-0.777c-0.742,0.52-1.642,0.777-2.699,0.777h-0.711
		c-1.979,0-3.433-0.422-4.354-1.266c-0.924-0.844-1.384-2.223-1.384-4.137v-6.076c0-1.891,0.467-3.264,1.401-4.119
		c0.934-0.855,2.38-1.283,4.337-1.283h3.241V22.16h2.87V45.793z M193.805,43.262c0.743,0,1.294-0.197,1.653-0.592
		c0.36-0.395,0.54-0.816,0.54-1.266v-9.961h-3.578c-1.687,0-2.531,0.732-2.531,2.195v7.428c0,1.465,0.845,2.195,2.531,2.195H193.805
		z"/>
	<path fill="#32DEFF" d="M213.185,45.793h-4.355c-1.98,0-3.433-0.422-4.355-1.266c-0.924-0.844-1.384-2.223-1.384-4.137v-6.076
		c0-1.936,0.415-3.32,1.249-4.152c0.832-0.834,2.217-1.25,4.151-1.25h0.914c3.241,0,4.86,1.744,4.86,5.232v4.391h-8.305v2.531
		c0,1.465,0.844,2.195,2.53,2.195h4.694V45.793z M205.96,33.639v2.363h5.503v-2.533c0-0.582-0.191-1.068-0.575-1.451
		c-0.382-0.383-0.866-0.574-1.451-0.574h-1.283c-0.81,0-1.378,0.188-1.705,0.559C206.122,32.373,205.96,32.918,205.96,33.639z"/>
</g>
<g>
	<g>
		<path fill="#1F4FAE" d="M28.043,21.602c0,0.242-0.179,0.525-0.397,0.629l-9.714,4.598c-0.219,0.102-0.397-0.012-0.397-0.252
			v-1.063c0-0.242,0.179-0.525,0.397-0.627l7.324-3.465c0.219-0.104,0.397-0.197,0.397-0.209s-0.179-0.107-0.397-0.209l-7.324-3.465
			c-0.219-0.104-0.397-0.387-0.397-0.627v-1.064c0-0.242,0.179-0.355,0.397-0.252l9.714,4.596c0.219,0.104,0.397,0.387,0.397,0.627
			V21.602z"/>
	</g>
	<g>
		<path fill="#1F4FAE" d="M55.737,20.865c0-0.24,0.179-0.523,0.396-0.629l9.719-4.639c0.218-0.105,0.396,0.008,0.396,0.25v1.084
			c0,0.242-0.179,0.523-0.397,0.627l-7.329,3.445c-0.219,0.104-0.397,0.197-0.397,0.209s0.179,0.105,0.397,0.209l7.329,3.465
			c0.219,0.102,0.397,0.385,0.397,0.627v1.063c0,0.24-0.179,0.354-0.396,0.25l-9.719-4.639c-0.218-0.104-0.396-0.387-0.396-0.629
			V20.865z"/>
	</g>
</g>
<g>
	<path fill="#8159AE" d="M83.345,4.998h-7.634v4.404h3c0.241,0,0.439,0.199,0.439,0.439v56.607c0,0.24-0.198,0.439-0.439,0.439h-3
		v4.404h7.634c0.241,0,0.439-0.199,0.439-0.439V5.438C83.784,5.197,83.586,4.998,83.345,4.998z"/>
	<path fill="#1F4FAE" d="M69.035,66.889c-0.241,0-0.439,0.197-0.439,0.439v3.525c0,0.24,0.198,0.439,0.439,0.439h6.793v-4.404
		H69.035z"/>
	<path fill="#1F4FAE" d="M68.596,5.438v3.525c0,0.242,0.198,0.439,0.439,0.439h6.793V4.998h-6.793
		C68.794,4.998,68.596,5.197,68.596,5.438z"/>
</g>
<g>
	<path fill="#8159AE" d="M5.072,66.889c-0.241,0-0.439-0.199-0.439-0.439V9.842c0-0.24,0.198-0.439,0.439-0.439h2.986V4.998H0.439
		C0.198,4.998,0,5.197,0,5.438v65.416c0,0.24,0.198,0.439,0.439,0.439h7.6v-4.404H5.072z"/>
	<path fill="#1F4FAE" d="M15.188,70.854v-3.525c0-0.242-0.198-0.439-0.439-0.439H7.956v4.404h6.792
		C14.989,71.293,15.188,71.094,15.188,70.854z"/>
	<path fill="#1F4FAE" d="M14.748,9.402c0.241,0,0.439-0.197,0.439-0.439V5.438c0-0.24-0.198-0.439-0.439-0.439H7.956v4.404H14.748z"
		/>
</g>
<g>
	<path fill="#8159AE" d="M33.137,82.686c0,0.24,0.198,0.439,0.439,0.439h3.266c0.241,0,0.439-0.199,0.439-0.439v-6.473h-4.145
		V82.686z"/>
	<path fill="#8159AE" d="M46.275,82.686c0,0.24,0.198,0.439,0.439,0.439h3.266c0.241,0,0.439-0.199,0.439-0.439v-6.473h-4.145
		V82.686z"/>
	<path fill="#1F4FAE" d="M36.842,67.543h-3.266c-0.241,0-0.439,0.197-0.439,0.439v8.311h4.145v-8.311
		C37.281,67.74,37.083,67.543,36.842,67.543z"/>
	<path fill="#1F4FAE" d="M49.98,67.543h-3.266c-0.241,0-0.439,0.197-0.439,0.439v8.311h4.145v-8.311
		C50.42,67.74,50.222,67.543,49.98,67.543z"/>
</g>
</svg>
