<?xml version="1.0" encoding="utf-8"?>
<!-- Generator: Adobe Illustrator 16.0.0, SVG Export Plug-In . SVG Version: 6.00 Build 0)  -->
<!DOCTYPE svg PUBLIC "-//W3C//DTD SVG 1.1//EN" "http://www.w3.org/Graphics/SVG/1.1/DTD/svg11.dtd">
<svg version="1.1" id="Layer_1" xmlns="http://www.w3.org/2000/svg" xmlns:xlink="http://www.w3.org/1999/xlink" x="0px" y="0px"
	 width="306.82px" height="80.99px" viewBox="0 0 306.82 80.99" enable-background="new 0 0 306.82 80.99" xml:space="preserve" class='icon'>
<g>
	<path fill="none" d="M64.148,7.705c-2.523,3.333-5.063,6.658-7.546,9.992C59.085,14.363,61.627,11.038,64.148,7.705z"/>
	<path fill="none" d="M62.926,32.393c-0.456-1.263-2.014-4.221-2.177-4.478c-0.97-1.571-2.101-2.955-3.357-4.219
		c-1-1.008-2.113-1.864-3.248-2.661c-1.692-1.188-3.493-2.19-5.424-2.895c-2.6-0.969-5.329-1.464-8.115-1.479l0.041-8.331
		l-0.041,8.33c-2.479-0.017-4.964,0.256-7.395,1.044c-0.908,0.286-1.78,0.743-2.664,1.146c-0.621,0.289-3.731,2.099-4.604,2.778
		c-0.556,0.428-1.121,0.832-1.625,1.301c-0.207,0.193-0.379,0.411-0.575,0.609c-1.096,1.085-2.068,2.247-2.924,3.501
		c-1.729,2.542-2.942,5.357-3.594,8.333c-0.595,2.7-0.77,5.484-0.396,8.274c0.234,1.762,0.724,3.504,1.37,5.216
		c0.243,0.649,0.535,1.281,0.84,1.903c0.178,0.371,0.299,0.748,0.499,1.114c0.071,0.13,0.098,0.272,0.174,0.402
		c1.713,3.009,4.008,5.48,6.627,7.401c2.888,2.13,6.201,3.489,9.681,4.159c3.316,0.639,6.741,0.565,10.106-0.253
		c2.104-0.515,4.193-1.221,6.181-2.347l0.009-0.003c1.459-0.832,2.786-1.802,4.005-2.869c1.081-0.955,2.051-2.007,2.922-3.119
		c2.178-2.764,3.656-5.941,4.454-9.318v-0.006c0.634-2.695,0.866-5.484,0.532-8.274c-0.038-0.41-0.119-0.81-0.194-1.226
		C63.81,35.068,63.41,33.72,62.926,32.393z"/>
	<path fill="#C42E30" d="M23.741,23.538c0.196-0.198,0.368-0.416,0.575-0.609L13.052,10.727c-0.444,0.404-0.601,0.546-1.022,0.966
		c-1.758,1.751-3.567,3.915-4.96,5.966l13.748,9.379C21.673,25.784,22.646,24.623,23.741,23.538z"/>
	<path fill="#F7B82D" d="M20.817,27.039L7.069,17.659c-3.166,4.631-4.915,8.691-6.098,14.166c-0.006,0.003-0.006,0.003-0.006,0.003
		l16.258,3.542C17.875,32.396,19.089,29.581,20.817,27.039z"/>
	<path fill="#EC5D30" d="M17.224,35.371L0.966,31.829c-0.005,0-0.005,0-0.005,0c-1.062,4.869-1.236,9.102-0.561,14.035l16.428-2.218
		C16.454,40.855,16.629,38.071,17.224,35.371z"/>
	<path fill="#C42E30" d="M16.828,43.645L0.4,45.863l-0.003,0c0.411,3.076,1.152,5.969,2.244,8.88l15.557-5.882
		C17.552,47.149,17.063,45.407,16.828,43.645z"/>
	<path fill="#EF5E2D" d="M18.198,48.861L2.642,54.744c0.433,1.139,0.862,2.132,1.391,3.241l15.006-7.22
		C18.733,50.142,18.441,49.51,18.198,48.861z"/>
	<path fill="#C42E30" d="M19.038,50.765l-15.006,7.22c0.349,0.711,0.71,1.416,1.088,2.089c4.752-2.701,9.348-5.313,14.417-8.195
		C19.337,51.513,19.216,51.136,19.038,50.765z"/>
	<path fill="#F7B82D" d="M19.711,52.281c-0.076-0.13-0.103-0.272-0.174-0.402c-5.069,2.882-9.665,5.494-14.417,8.195
		c2.841,5.195,6.535,9.38,11.412,12.959l9.806-13.35C23.719,57.761,21.424,55.29,19.711,52.281z"/>
	<path fill="#C42E30" d="M26.338,59.682l-9.806,13.35l0.004,0.006c4.9,3.595,10.105,5.974,15.547,7.129
		c1.311-5.447,2.623-10.885,3.936-16.326C32.539,63.171,29.226,61.812,26.338,59.682z"/>
	<path fill="#F7B82D" d="M36.019,63.841c-1.313,5.441-2.625,10.879-3.936,16.326c5.738,1.219,11.756,1.092,17.978-0.432
		l-3.936-16.147C42.76,64.406,39.335,64.479,36.019,63.841z"/>
	<path fill="#C42E30" d="M52.314,61.238c2.713,4.773,5.424,9.541,8.185,14.396c2.421-1.358,4.688-2.969,6.793-4.855
		c-3.661-4.145-7.311-8.271-10.973-12.41C55.101,59.436,53.773,60.407,52.314,61.238z"/>
	<path fill="#EC5D30" d="M52.306,61.241c-1.987,1.126-4.076,1.832-6.181,2.347l3.936,16.147c3.785-0.92,7.255-2.299,10.438-4.101
		c-2.761-4.855-5.472-9.624-8.185-14.396L52.306,61.241z"/>
	<path fill="#F7B82D" d="M56.319,58.37c3.662,4.138,7.312,8.265,10.973,12.41c1.743-1.575,3.389-3.319,4.927-5.269L59.241,55.251
		C58.37,56.363,57.4,57.415,56.319,58.37z"/>
	<path fill="#C42E30" d="M59.241,55.251L72.219,65.51c3.858-4.893,6.186-9.699,7.621-15.759l-16.145-3.818
		C62.897,49.31,61.419,52.487,59.241,55.251z"/>
	<path fill="#F7B82D" d="M80.644,35.719l-16.416,1.934c0.334,2.79,0.102,5.579-0.532,8.274l16.139,3.815l0.006,0.009
		C80.977,44.892,81.224,40.677,80.644,35.719z"/>
	<polygon fill="#909394" points="63.695,45.927 63.695,45.933 79.84,49.751 79.834,49.742 	"/>
	<path fill="#C42E30" d="M64.228,37.653l16.416-1.934c-0.071-0.591-0.207-1.498-0.301-2.088l-16.31,2.796
		C64.108,36.843,64.189,37.243,64.228,37.653z"/>
	<path fill="#EF5E2D" d="M64.033,36.427l16.31-2.796c-0.417-2.45-0.966-4.487-1.797-6.824l-15.62,5.586
		C63.41,33.72,63.81,35.068,64.033,36.427z"/>
	<path fill="#F7B82D" d="M62.926,32.393l15.62-5.586c-1.038-2.919-2.031-4.97-3.657-7.617l-14.14,8.726
		C60.912,28.172,62.47,31.13,62.926,32.393z"/>
	<path fill="#EF5E2D" d="M60.749,27.915l14.14-8.726c-1.633-2.64-3.496-4.965-5.683-7.181L57.392,23.696
		C58.648,24.96,59.779,26.344,60.749,27.915z"/>
	<path fill="#C42E30" d="M54.144,21.035c1.135,0.797,2.248,1.653,3.248,2.661l11.814-11.688c-1.641-1.657-3.323-3.037-5.058-4.304
		c-2.521,3.333-5.063,6.658-7.546,9.992C55.775,18.809,54.955,19.921,54.144,21.035z"/>
	<path fill="#EF5E2D" d="M54.144,21.035c0.812-1.114,1.632-2.227,2.459-3.338c2.482-3.334,5.022-6.66,7.546-9.992
		c-2.904-2.124-5.979-3.843-9.635-5.197L48.72,18.14C50.65,18.845,52.451,19.848,54.144,21.035z"/>
	<path fill="#F7B82D" d="M40.646,8.33l-0.041,8.331c2.786,0.015,5.516,0.51,8.115,1.479l5.794-15.632
		C49.834,0.782,45.662,0.026,40.688,0v0l0,0L40.646,8.33z"/>
	<path fill="#EC5D30" d="M40.604,16.66l0.041-8.33L40.688,0l0,0c-4.354-0.02-8.363,0.583-12.505,1.909l5.027,15.794
		C35.641,16.917,38.126,16.643,40.604,16.66z"/>
	<path fill="#C42E30" d="M33.21,17.704L28.183,1.91c-1.769,0.572-2.918,1.017-4.606,1.787l6.97,15.153
		C31.43,18.447,32.302,17.99,33.21,17.704z"/>
	<path fill="#F7B82D" d="M30.546,18.85l-6.97-15.153c-2.822,1.308-5.382,2.841-7.834,4.745l10.199,13.186
		C26.814,20.948,29.925,19.139,30.546,18.85z"/>
	<path fill="#EC5D30" d="M25.941,21.627L15.742,8.442c-0.973,0.75-1.795,1.447-2.69,2.285l11.265,12.202
		C24.82,22.459,25.386,22.055,25.941,21.627z"/>
</g>
<g>
	<g>
		<g>
			<path fill="#C42E30" d="M93.246,59.279c-1.477,0-2.5-0.164-3.439-0.326v-4.586c0.656,0.246,1.555,0.41,2.537,0.41
				c1.924,0,3.029-0.82,3.029-3.807V23.181h5.32v27.994C100.693,55.718,98.852,59.279,93.246,59.279z"/>
			<path fill="#C42E30" d="M120.377,50.845c0-0.939,0.041-2.494,0.244-3.641l-0.082-0.041c-1.188,2.416-3.559,4.094-6.875,4.094
				c-4.623,0-6.098-2.947-6.098-6.506V34.478c-0.982-0.166-2.334-0.33-3.52-0.41v-3.275c2.701-0.326,5.934-0.447,8.758-0.367v13.057
				c0,2.127,0.574,3.395,2.496,3.395c2.66,0,4.748-3.029,4.748-6.588v-9.822h5.199v16.33c0.982,0.162,2.373,0.328,3.561,0.408v3.273
				C126.23,50.806,123.078,50.929,120.377,50.845z"/>
			<path fill="#C42E30" d="M157.904,50.806V37.914c0-2.17-0.492-3.52-2.416-3.52c-2.291,0-4.666,2.701-4.666,6.67v9.742h-5.156
				V37.914c0-2.006-0.408-3.52-2.416-3.52c-2.414,0-4.666,2.865-4.666,6.67v9.742h-5.197V34.478c-0.982-0.166-2.371-0.33-3.561-0.41
				v-3.275c2.578-0.326,5.771-0.447,8.473-0.367c0,0.982-0.084,2.496-0.246,3.682h0.041c1.229-2.496,3.684-4.092,6.713-4.092
				c3.6,0,5.115,2.129,5.607,4.092c0.941-2.004,3.189-4.092,6.629-4.092c3.93,0,6.1,2.17,6.1,6.795v13.996H157.904z"/>
			<path fill="#C42E30" d="M166.572,34.068v-3.275c2.58-0.326,5.689-0.447,8.391-0.367c0,1.02-0.039,2.373-0.203,3.438h0.082
				c1.145-2.375,3.314-3.807,6.383-3.807c4.828,0,7.451,3.479,7.451,9.494c0,7.08-3.684,11.543-10.725,11.543
				c-0.982,0-1.762-0.041-2.621-0.164v9.74h-5.197V34.478C169.152,34.312,167.76,34.148,166.572,34.068z M179.711,34.353
				c-2.742,0-4.381,3.193-4.381,6.672v5.648c0.82,0.244,1.68,0.367,2.744,0.367c2.988,0,5.115-1.883,5.115-6.916
				C183.189,36.318,182.086,34.353,179.711,34.353z"/>
			<path fill="#C42E30" d="M198.125,51.257c-1.965,0-3.93-0.205-5.646-0.654l0.324-4.953c1.555,0.531,3.768,0.98,5.773,0.98
				c2.701,0,4.789-1.104,4.789-3.641c0-5.279-11.586-2.865-11.586-11.951c0-4.912,3.891-8.309,10.521-8.309
				c1.555,0,3.355,0.205,4.992,0.49l-0.287,4.668c-1.555-0.451-3.273-0.736-4.951-0.736c-3.07,0-4.625,1.391-4.625,3.355
				c0,4.951,11.623,3.109,11.623,11.746C209.053,47.449,204.918,51.257,198.125,51.257z"/>
			<path fill="#C42E30" d="M220.387,51.218c-4.504,0-5.895-1.639-5.895-6.387V34.517h-3.52v-4.051h3.48v-6.262l5.238-1.395v7.656
				h4.951v4.051h-4.951v8.924c0,2.619,0.613,3.355,2.412,3.355c0.861,0,1.803-0.123,2.539-0.33v4.219
				C223.334,51.011,221.818,51.218,220.387,51.218z"/>
			<path fill="#C42E30" d="M239.783,50.845c0-1.182,0.041-2.412,0.201-3.477l-0.037-0.041c-0.982,2.291-3.479,3.891-6.508,3.891
				c-3.684,0-5.813-2.088-5.813-5.363c0-4.871,4.83-7.451,11.748-7.451V37.3c0-2.129-1.025-3.232-3.973-3.232
				c-1.84,0-4.295,0.613-6.018,1.594l-0.449-4.377c2.047-0.736,4.666-1.27,7.287-1.27c6.549,0,8.389,2.619,8.389,7.08v9.701
				c0.984,0.162,2.375,0.328,3.561,0.408v3.273C245.596,50.806,242.443,50.929,239.783,50.845z M239.375,41.804
				c-5.527,0-6.754,1.594-6.754,3.232c0,1.309,0.896,2.168,2.414,2.168c2.578,0,4.34-2.453,4.34-4.912V41.804z"/>
			<path fill="#C42E30" d="M256.959,34.558h0.082c0.982-2.58,2.947-4.828,6.467-4.543l-0.246,5.156
				c-3.766-0.777-5.646,1.678-5.646,7.326v8.309h-5.199V34.478c-0.98-0.166-2.373-0.33-3.561-0.41v-3.275
				c2.58-0.326,5.732-0.447,8.473-0.367C257.328,31.488,257.205,33.126,256.959,34.558z"/>
			<path fill="#C42E30" d="M274.738,51.218c-4.502,0-5.895-1.639-5.895-6.387V34.517h-3.52v-4.051h3.48v-6.262l5.236-1.395v7.656
				h4.953v4.051h-4.953v8.924c0,2.619,0.615,3.355,2.414,3.355c0.859,0,1.803-0.123,2.539-0.33v4.219
				C277.684,51.011,276.17,51.218,274.738,51.218z"/>
		</g>
	</g>
	<path fill="#C42E30" d="M294.203,22.663c-1.205-0.469-2.588-0.758-3.992-0.758c-2.965,0-5.104,1.873-5.104,5.238
		c0,3.188,1.736,5.061,4.793,5.061c0.713,0,1.336-0.09,1.918-0.268V26.7h2.893v7.176c-1.49,0.6-3.34,0.936-5.145,0.936
		c-4.771,0-7.604-2.809-7.604-7.398c0-4.729,3.211-8.092,8.428-8.092c1.494,0,2.963,0.268,4.256,0.646L294.203,22.663z"/>
	<path fill="#C42E30" d="M306.732,29.506h-6.865c-0.021,2.074,1.002,3.076,3.053,3.076c1.094,0,2.273-0.246,3.234-0.689l0.264,2.203
		c-1.18,0.471-2.582,0.715-3.965,0.715c-3.523,0-5.482-1.762-5.482-5.662c0-3.389,1.871-5.883,5.193-5.883
		c3.229,0,4.656,2.205,4.656,4.947C306.82,28.592,306.797,29.038,306.732,29.506z M302.072,25.358c-1.18,0-2.004,0.871-2.158,2.209
		h4.076C304.033,26.184,303.277,25.358,302.072,25.358z"/>
</g>
</svg>
