<?xml version="1.0" encoding="utf-8"?>
<!-- Generator: Adobe Illustrator 16.0.0, SVG Export Plug-In . SVG Version: 6.00 Build 0)  -->
<!DOCTYPE svg PUBLIC "-//W3C//DTD SVG 1.1//EN" "http://www.w3.org/Graphics/SVG/1.1/DTD/svg11.dtd">
<svg version="1.1" id="Layer_1" xmlns="http://www.w3.org/2000/svg" xmlns:xlink="http://www.w3.org/1999/xlink" x="0px" y="0px"
	 width="24px" height="24px" viewBox="0 0 24 24" enable-background="new 0 0 24 24" xml:space="preserve" class='icon'>
<rect y="0" opacity="0" width="24" height="24"/>
<g>
	<path id="LinkedIn" d="M19.296,13.582v5.394h-3.128v-5.032c0-1.266-0.451-2.128-1.584-2.128
		c-0.864,0-1.38,0.582-1.605,1.144c-0.081,0.2-0.104,0.48-0.104,0.762v5.255H9.748c0,0,0.041-8.525,0-9.408h3.127v1.333
		c-0.005,0.01-0.015,0.02-0.02,0.031h0.02v-0.031c0.417-0.641,1.159-1.554,2.819-1.554C17.753,9.346,19.296,10.69,19.296,13.582z
		 M6.475,5.033c-1.07,0-1.77,0.701-1.77,1.625c0,0.903,0.68,1.626,1.729,1.626h0.02c1.091,0,1.77-0.723,1.77-1.626
		C8.203,5.734,7.544,5.033,6.475,5.033z M4.891,18.976h3.127V9.568H4.891V18.976z"/>
</g>
</svg>
