<?xml version="1.0" encoding="utf-8"?>
<!-- Generator: Adobe Illustrator 16.0.0, SVG Export Plug-In . SVG Version: 6.00 Build 0)  -->
<!DOCTYPE svg PUBLIC "-//W3C//DTD SVG 1.1//EN" "http://www.w3.org/Graphics/SVG/1.1/DTD/svg11.dtd">
<svg version="1.1" id="Layer_1" xmlns="http://www.w3.org/2000/svg" xmlns:xlink="http://www.w3.org/1999/xlink" x="0px" y="0px"
	 width="24px" height="24px" viewBox="0 0 24 24" enable-background="new 0 0 24 24" xml:space="preserve" class='icon'>
<rect x="-0.015" y="-0.02" opacity="0" width="24" height="24"/>
<g>
	<path id="LinkedIn" d="M19.563,13.619v5.602h-3.248v-5.227c0-1.314-0.47-2.21-1.646-2.21
		c-0.897,0-1.432,0.604-1.667,1.189c-0.085,0.207-0.107,0.498-0.107,0.791v5.457H9.646c0,0,0.043-8.854,0-9.771h3.248v1.385
		c-0.006,0.01-0.015,0.021-0.02,0.032h0.02v-0.032c0.433-0.665,1.204-1.614,2.928-1.614C17.96,9.22,19.563,10.616,19.563,13.619z
		 M6.247,4.74c-1.111,0-1.838,0.729-1.838,1.688c0,0.938,0.706,1.689,1.795,1.689h0.021c1.133,0,1.838-0.751,1.838-1.689
		C8.042,5.469,7.358,4.74,6.247,4.74z M4.601,19.221h3.248V9.45H4.601V19.221z"/>
</g>
</svg>
