<?xml version="1.0" encoding="utf-8"?>
<!-- Generator: Adobe Illustrator 16.0.0, SVG Export Plug-In . SVG Version: 6.00 Build 0)  -->
<!DOCTYPE svg PUBLIC "-//W3C//DTD SVG 1.1//EN" "http://www.w3.org/Graphics/SVG/1.1/DTD/svg11.dtd">
<svg version="1.1" id="Layer_1" xmlns="http://www.w3.org/2000/svg" xmlns:xlink="http://www.w3.org/1999/xlink" x="0px" y="0px"
	 width="24px" height="24px" viewBox="0 0 24 24" enable-background="new 0 0 24 24" xml:space="preserve" class='icon'>
<rect opacity="0" width="24" height="24"/>
<path d="M19.584,7.296c-0.559,0.248-1.158,0.415-1.787,0.49c0.643-0.385,1.137-0.994,1.369-1.721
	c-0.604,0.356-1.268,0.615-1.977,0.754c-0.568-0.604-1.377-0.982-2.271-0.982c-1.719,0-3.112,1.394-3.112,3.111
	c0,0.245,0.027,0.481,0.081,0.709C9.301,9.528,7.008,8.29,5.473,6.407C5.204,6.866,5.052,7.401,5.052,7.971
	c0,1.08,0.549,2.032,1.384,2.589c-0.51-0.016-0.99-0.155-1.409-0.389c-0.001,0.013-0.001,0.027-0.001,0.04
	c0,1.507,1.073,2.765,2.497,3.05c-0.261,0.072-0.536,0.109-0.82,0.109c-0.201,0-0.396-0.018-0.585-0.055
	c0.396,1.234,1.545,2.135,2.907,2.16c-1.065,0.834-2.407,1.332-3.865,1.332c-0.25,0-0.499-0.016-0.742-0.043
	c1.377,0.883,3.012,1.396,4.77,1.396c5.724,0,8.854-4.74,8.854-8.852c0-0.135-0.004-0.27-0.01-0.403
	C18.639,8.468,19.166,7.92,19.584,7.296z"/>
</svg>
